<mxfile host="app.diagrams.net" modified="2023-06-08T07:30:37.584Z" agent="Mozilla/5.0 (Windows NT 10.0; Win64; x64) AppleWebKit/537.36 (KHTML, like Gecko) Chrome/114.0.0.0 Safari/537.36" version="21.3.7" etag="CkXkmJhosBGX_-OOLbp9" type="github">
  <diagram name="第 1 页" id="e5GF9GW9gcxYME9DQlsB">
    <mxGraphModel>
      <root>
        <mxCell id="0" />
        <mxCell id="1" parent="0" />
      </root>
    </mxGraphModel>
  </diagram>
</mxfile>
